# xmcd
#
# Track frame offsets:
#	182
#	28545
#	56645
#	80864
#	104408
#	127526
#	155952
#	184792
#
# Disc length: 2828 seconds
#
# Revision: 1
# Processed by: cddbd v1.5.1PL2 Copyright (c) Steve Scherf et al.
# Submitted via: audiograbber 1.83.01
#
DISCID=660b0a08
DTITLE=Barbès Café - Temouchent-Oran à l'origine du 'pop-raï'
DYEAR=1999
DGENRE=Blues
TTITLE0=Bellemou - Sidi hbibi
TTITLE1=Bellemou - Cortège kalaa
TTITLE2=Bellemou - Larga
TTITLE3=Bouteïra Sghir - Diri lataye
TTITLE4=Bouteïra Sghir - Gouli wah
TTITLE5=Benfissa Younès - Tab galbi
TTITLE6=Benfissa Younès - Hay lali ilali
TTITLE7=Benfissa Younès - Kichefetni
EXTD=
EXTT0=
EXTT1=
EXTT2=
EXTT3=
EXTT4=
EXTT5=
EXTT6=
EXTT7=
PLAYORDER=
